Patient4_TMGait_0pt4_01_right_21_GRF.mot
version=1
nRows=26
nColumns=19
inDegrees=no
endheader
time	F1x	F1y	F1z	M1x	M1y	M1z	F2x	F2y	F2z	M2x	M2y	M2z	EC1x	EC1y	EC1z	EC2x	EC2y	EC2z
27.06	6.4753	788.1947	72.2061	-250.6188	-59.601	693.647	-34.4934	-3.4597	1.3469	-0.29458	5.5719	5.8372	-0.0592	0.0182	-0.0073	-0.0462	0.0165	0.9585
27.0726	6.4304	773.4152	69.8912	-246.001	-57.2506	679.2388	-23.2439	-1.7594	0.87013	0.027542	3.7861	4.4411	-0.0592	0.0182	-0.0073	-0.0462	0.0165	0.9585
27.0853	6.6295	757.761	67.6791	-240.9746	-54.8722	663.9202	-13.7926	-0.28177	0.47376	0.31362	2.2932	3.3262	-0.0592	0.0182	-0.0073	-0.0462	0.0165	0.9585
27.0979	7.093	742.6515	65.619	-236.0027	-52.5204	648.9493	-6.6347	0.87315	0.18268	0.54485	1.1682	2.5268	-0.0592	0.0182	-0.0073	-0.0462	0.0165	0.9585
27.1106	7.8019	729.3217	63.7258	-231.5167	-50.2296	635.3892	-1.7223	1.715	-0.017023	0.7221	0.41453	2.0442	-0.0592	0.0182	-0.0073	-0.0462	0.0165	0.9585
27.1232	8.729	718.6908	61.9868	-227.8503	-48.007	624.0149	1.2732	2.27	-0.13881	0.84666	-0.026679	1.8126	-0.0592	0.0182	-0.0073	-0.0462	0.0165	0.9585
27.1359	9.8578	711.2779	60.4129	-225.2011	-45.8697	615.2477	2.8079	2.5692	-0.20991	0.91844	-0.2243	1.7291	-0.0592	0.0182	-0.0073	-0.0462	0.0165	0.9585
27.1485	11.1517	707.2319	59.0148	-223.6321	-43.8335	609.1987	3.3054	2.6655	-0.24766	0.94007	-0.2459	1.7241	-0.0592	0.0182	-0.0073	-0.0462	0.0165	0.9585
27.1611	12.5761	706.4145	57.826	-223.1019	-41.9386	605.7464	3.1559	2.5431	-0.26718	0.89535	-0.1551	1.6513	-0.0592	0.0182	-0.0073	-0.0462	0.0165	0.9585
27.1738	14.0826	708.4994	56.8689	-223.5012	-40.2194	604.6314	2.6182	2.2046	-0.2749	0.77	0.0018995	1.4441	-0.0592	0.0182	-0.0073	-0.0462	0.0165	0.9585
27.1864	15.6376	713.0736	56.1822	-224.6913	-38.7259	605.5168	1.9355	1.5936	-0.28096	0.53526	0.18189	0.97791	-0.0592	0.0182	-0.0073	-0.0462	0.0165	0.9585
27.1991	17.2364	719.7057	55.7702	-226.5279	-37.4665	608.044	1.214	0.65823	-0.27664	0.1633	0.35427	0.1935	-0.0592	0.0182	-0.0073	-0.0462	0.0165	0.9585
27.2117	18.9357	727.9344	55.6511	-228.8567	-36.4479	611.8154	0.58142	-0.65747	-0.2591	-0.36939	0.48789	-0.97877	-0.0592	0.0182	-0.0073	-0.0462	0.0165	0.9585
27.2244	20.7641	737.2151	55.8267	-231.4949	-35.6622	616.3831	0.11435	-2.3343	-0.22055	-1.0576	0.5554	-2.5104	-0.0592	0.0182	-0.0073	-0.0462	0.0165	0.9585
27.237	22.7463	746.8354	56.3358	-234.2027	-35.1367	621.1742	-0.097874	-4.2923	-0.14533	-1.8646	0.51105	-4.3303	-0.0592	0.0182	-0.0073	-0.0462	0.0165	0.9585
27.2496	24.8433	755.9178	57.1876	-236.6875	-34.8849	625.5079	0.068267	-6.2745	-0.013612	-2.6822	0.2859	-6.1871	-0.0592	0.0182	-0.0073	-0.0462	0.0165	0.9585
27.2623	27.0061	763.5048	58.3859	-238.6383	-34.9282	628.6285	0.76227	-7.8043	0.18773	-3.3084	-0.20337	-7.6158	-0.0592	0.0182	-0.0073	-0.0462	0.0165	0.9585
27.2749	29.1654	768.7111	59.865	-239.7754	-35.2302	629.8659	2.1701	-8.139	0.47088	-3.4238	-1.0555	-7.9107	-0.0592	0.0182	-0.0073	-0.0462	0.0165	0.9585
27.2876	31.3342	770.8481	61.5378	-239.8811	-35.7177	628.6836	4.4631	-6.1569	0.83059	-2.5556	-2.3464	-5.9793	-0.0592	0.0182	-0.0073	-0.0462	0.0165	0.9585
27.3002	33.5413	769.4679	63.3102	-238.812	-36.2992	624.7392	7.7868	-0.41583	1.2365	-0.091917	-4.1087	-0.43991	-0.0592	0.0182	-0.0073	-0.0462	0.0165	0.9585
27.3129	35.8109	764.2963	65.1119	-236.4786	-36.9112	617.8483	12.1005	10.8151	1.6202	4.6962	-6.2681	10.396	-0.0592	0.0182	-0.0073	-0.0462	0.0165	0.9585
27.3255	38.0893	755.0957	66.8171	-232.8111	-37.4713	607.8845	17.156	29.3113	1.8522	12.5539	-8.593	28.2391	-0.0592	0.0182	-0.0073	-0.0462	0.0165	0.9585
27.3381	40.2495	741.5938	68.2421	-227.7404	-37.8843	594.7361	22.2471	56.4883	1.7395	24.0652	-10.6045	54.4745	-0.0592	0.0182	-0.0073	-0.0462	0.0165	0.9585
27.3508	42.0931	723.408	69.0936	-221.1801	-37.9917	578.2237	26.1687	92.7662	1.0373	39.3917	-11.5599	89.5105	-0.0592	0.0182	-0.0073	-0.0462	0.0165	0.9585
27.3634	43.3596	700.0895	69.0365	-213.0365	-37.6283	558.1343	27.1922	136.7793	-0.53551	57.9335	-10.4714	132.0242	-0.0592	0.0182	-0.0073	-0.0462	0.0165	0.9585
27.3761	43.8324	671.2858	67.754	-203.2594	-36.6271	534.2736	23.7426	184.8669	-3.3023	78.1284	-6.4197	178.5039	-0.0592	0.0182	-0.0073	-0.0462	0.0165	0.9585
